<svg width="50" height="49" viewBox="0 0 50 49" fill="none" xmlns="http://www.w3.org/2000/svg">
<g id="ci:apple">
<path id="Vector" d="M19.4418 42.8871C18.158 42.8176 16.9499 42.2577 16.0669 41.3232C15.0106 40.3069 14.0679 39.1787 13.2556 37.9585C11.9866 36.1415 10.9836 34.1526 10.2768 32.052C9.47685 29.7922 9.05604 27.4156 9.03136 25.0185C8.96921 22.6664 9.55169 20.3421 10.7157 18.2973C11.5683 16.8234 12.7843 15.5926 14.2478 14.7223C15.6951 13.8558 17.3467 13.3893 19.0335 13.3708C20.3051 13.446 21.5546 13.7366 22.7289 14.2303C23.666 14.6427 24.6501 14.9326 25.6607 15.0919C26.7755 14.8584 27.8648 14.5164 28.9131 14.0711C30.1538 13.5866 31.4673 13.3154 32.7984 13.2687C32.976 13.2687 33.1516 13.2687 33.3211 13.2891C36.2406 13.3728 38.9561 14.8061 40.6711 17.1683C39.3326 17.8841 38.2189 18.9571 37.4537 20.268C36.6885 21.5789 36.3018 23.0763 36.3366 24.5938C36.3233 25.7542 36.556 26.9042 37.0195 27.968C37.4829 29.0319 38.1666 29.9854 39.0255 30.7658C39.8074 31.5105 40.7177 32.1074 41.7123 32.5277C41.5081 33.1402 41.2734 33.7323 41.0243 34.3285C40.4588 35.6459 39.761 36.9025 38.9418 38.079C38.1671 39.2576 37.2654 40.3476 36.2529 41.3293C35.3293 42.2458 34.0981 42.7864 32.7984 42.8463C31.6966 42.7975 30.6143 42.539 29.6093 42.0848C28.5256 41.6127 27.361 41.3541 26.1793 41.3232C24.9643 41.3472 23.7652 41.6043 22.6472 42.0807C21.6816 42.5163 20.65 42.7875 19.5949 42.8831L19.4418 42.8871ZM25.8731 13.2687C25.7199 13.2687 25.5668 13.2687 25.4137 13.2503C25.3815 13.0073 25.3644 12.7625 25.3626 12.5173C25.4294 10.478 26.2264 8.53045 27.6085 7.02934C28.3815 6.16665 29.3184 5.46637 30.3647 4.9693C31.3398 4.46737 32.4053 4.16541 33.4987 4.08118C33.5293 4.34864 33.5293 4.60997 33.5293 4.85905C33.5006 6.86635 32.7464 8.79543 31.406 10.2899C30.757 11.1601 29.9254 11.8777 28.9695 12.3923C28.0137 12.9069 26.9568 13.206 25.8731 13.2687Z" fill="#D7D7D7"/>
</g>
</svg>
