<svg width="50" height="49" viewBox="0 0 50 49" fill="none" xmlns="http://www.w3.org/2000/svg">
<g id="logos:facebook" clip-path="url(#clip0_940_157)">
<path id="Vector" d="M49.9375 24.5C49.9375 10.9691 38.9684 0 25.4375 0C11.9066 0 0.9375 10.9689 0.9375 24.5C0.9375 36.7286 9.89684 46.8645 21.6094 48.7024V31.582H15.3887V24.5H21.6094V19.1023C21.6094 12.962 25.2671 9.57031 30.8633 9.57031C33.5439 9.57031 36.3477 10.0488 36.3477 10.0488V16.0781H33.2584C30.2146 16.0781 29.2656 17.9667 29.2656 19.9043V24.5H36.0605L34.9743 31.582H29.2656V48.7024C40.9782 46.8645 49.9375 36.7288 49.9375 24.5Z" fill="#1877F2"/>
<path id="Vector_2" d="M34.9743 31.582L36.0605 24.5H29.2656V19.9043C29.2656 17.9665 30.2148 16.0781 33.2584 16.0781H36.3477V10.0488C36.3477 10.0488 33.5439 9.57031 30.8633 9.57031C25.2671 9.57031 21.6094 12.962 21.6094 19.1023V24.5H15.3887V31.582H21.6094V48.7024C22.8758 48.9008 24.1557 49.0003 25.4375 49C26.7193 49.0004 27.9993 48.9009 29.2656 48.7024V31.582H34.9743Z" fill="white"/>
</g>
<defs>
<clipPath id="clip0_940_157">
<rect width="49" height="49" fill="white" transform="translate(0.9375)"/>
</clipPath>
</defs>
</svg>
