<svg width="49" height="49" viewBox="0 0 49 49" fill="none" xmlns="http://www.w3.org/2000/svg">
<g id="flat-color-icons:google">
<path id="Vector" d="M44.5197 20.5013H42.8752V20.4166H24.5002V28.5833H36.0386C34.3553 33.3373 29.832 36.7499 24.5002 36.7499C17.7351 36.7499 12.2502 31.265 12.2502 24.4999C12.2502 17.7349 17.7351 12.2499 24.5002 12.2499C27.6229 12.2499 30.4639 13.428 32.627 15.3522L38.4019 9.57738C34.7555 6.17902 29.8779 4.08325 24.5002 4.08325C13.2251 4.08325 4.0835 13.2248 4.0835 24.4999C4.0835 35.775 13.2251 44.9166 24.5002 44.9166C35.7753 44.9166 44.9168 35.775 44.9168 24.4999C44.9168 23.131 44.776 21.7947 44.5197 20.5013Z" fill="#FFC107"/>
<path id="Vector_2" d="M6.4375 14.997L13.1454 19.9164C14.9604 15.4227 19.3561 12.2499 24.5001 12.2499C27.6229 12.2499 30.4638 13.428 32.627 15.3522L38.4018 9.57738C34.7554 6.17902 29.8779 4.08325 24.5001 4.08325C16.6581 4.08325 9.85729 8.51061 6.4375 14.997Z" fill="#FF3D00"/>
<path id="Vector_3" d="M24.4999 44.9166C29.7735 44.9166 34.5653 42.8984 38.1883 39.6165L31.8693 34.2693C29.7506 35.8806 27.1617 36.7521 24.4999 36.75C19.1895 36.75 14.6805 33.3639 12.9818 28.6384L6.32397 33.7681C9.70293 40.3801 16.565 44.9166 24.4999 44.9166Z" fill="#4CAF50"/>
<path id="Vector_4" d="M44.5196 20.5015H42.875V20.4167H24.5V28.5834H36.0385C35.2333 30.846 33.7828 32.8231 31.8663 34.2705L31.8694 34.2684L38.1884 39.6156C37.7412 40.0219 44.9167 34.7084 44.9167 24.5001C44.9167 23.1311 44.7758 21.7949 44.5196 20.5015Z" fill="#1976D2"/>
</g>
</svg>
