<svg width="251" height="121" viewBox="0 0 251 121" fill="none" xmlns="http://www.w3.org/2000/svg">
<g id="Group">
<path id="Vector" d="M8.61607 7.80753C9.67114 13.5049 9.24911 14.982 7.34999 13.9269C6.08391 13.0829 3.34073 13.5049 1.65262 14.982C-1.09056 17.3031 -0.668529 18.3582 4.81782 24.0556C11.5703 31.019 21.2769 57.3957 17.6897 58.6618C12.8363 60.3499 15.7905 67.3134 21.9099 68.5794C25.4972 69.4235 30.7725 73.2217 34.7818 78.2861L41.3232 86.5156H34.7818C25.0751 86.5156 26.1302 92.424 36.2588 93.9011C40.4791 94.5341 46.8095 95.5892 49.9747 96.0112C53.1399 96.6442 58.8373 99.1764 62.6355 102.131C66.4338 104.874 73.8193 108.672 79.5166 110.782C85.003 112.892 89.4343 115.424 89.4343 116.48C89.4343 117.746 92.3885 118.168 96.1867 117.746C99.9849 117.113 108.003 117.746 113.912 119.223C122.774 121.333 127.417 121.122 138.389 118.801C159.913 113.947 178.482 107.406 188.822 101.076C195.363 96.8553 201.271 94.9561 207.18 94.9561C217.731 94.9561 222.373 93.268 222.373 89.4698C222.373 87.5707 220.052 86.5156 215.831 86.5156H209.501L218.364 75.1209C223.428 68.7905 229.547 63.0931 232.29 62.249C237.355 60.983 238.621 57.1847 235.034 53.5975C231.868 50.4323 238.621 31.8631 246.006 24.0556C251.282 18.3582 251.704 17.3031 248.961 14.982C247.272 13.5049 244.74 12.8719 243.474 13.7159C242.208 14.56 241.364 12.2388 241.364 7.59651C241.364 2.32117 240.309 2.46331e-05 238.41 2.46331e-05C236.3 2.46331e-05 234.823 3.79827 233.979 12.0278C233.135 18.7802 231.024 25.9547 229.336 27.8538C225.96 31.6521 208.235 39.2486 206.547 37.7715C206.125 37.1384 207.602 32.9181 209.712 28.0648C211.822 23.2115 213.088 18.7802 212.244 18.1472C209.079 14.771 205.492 17.9362 201.271 28.4869L196.629 40.0926H187.134C178.904 40.0926 177.849 39.6706 179.115 36.0834C181.014 29.964 176.161 28.4869 170.886 33.5512C168.353 36.0834 165.188 37.9825 164.133 37.9825C162.867 37.9825 160.546 40.9367 158.858 44.7349C154.426 54.8636 149.995 56.5517 141.133 51.9094C134.38 48.1111 133.958 47.4781 136.912 44.3129C139.867 41.1477 139.867 40.5146 136.701 37.7715C133.747 35.4503 132.903 35.4503 130.582 38.8265C127.839 42.4138 127.417 42.4138 122.141 38.8265C114.756 33.9732 109.903 37.7715 115.6 44.1019C119.398 48.1111 119.187 48.5332 112.435 52.5424C108.425 55.0746 104.205 56.9737 102.939 56.9737C99.7739 56.9737 92.3885 48.3221 90.4893 42.6248C89.8563 40.0926 87.7462 37.9825 85.847 37.9825C84.1589 37.9825 80.9937 35.8723 79.0946 33.5512C76.1404 29.964 74.4523 29.3309 71.4981 31.019C68.9659 32.4961 68.5439 33.7622 70.232 34.6063C75.0853 37.7715 72.1312 40.0926 63.4796 40.0926C54.406 40.0926 54.406 40.0926 49.5527 28.2758C45.9655 20.0463 43.6443 16.8811 41.1122 17.5142C37.3139 18.3582 37.3139 19.2023 41.7452 29.964C44.9104 37.1384 44.9104 37.9825 41.9562 37.9825C37.7359 37.9825 23.387 30.808 20.4328 27.0098C19.1667 25.5327 17.4786 18.7802 16.6346 12.0278C15.3685 2.32117 14.3134 2.46331e-05 11.1482 2.46331e-05C7.98303 2.46331e-05 7.561 1.26611 8.61607 7.80753ZM37.1029 44.5239C48.4976 48.1111 51.2408 50.0102 55.2501 57.3957C57.9932 62.038 59.6814 66.2583 59.0483 66.8913C58.4153 67.5244 52.7179 67.3134 46.1765 66.4693C35.6258 65.2032 33.9377 64.3592 29.5064 57.3957C24.2311 49.3772 20.6438 40.0926 22.754 40.0926C23.387 40.0926 29.9284 41.9917 37.1029 44.5239ZM228.703 40.9367C228.703 46.001 221.107 57.6067 216.675 59.2948C208.446 62.249 192.198 64.3592 193.042 62.038C198.528 50.2213 200.427 48.7442 211.611 44.7349C223.639 40.5146 228.703 39.4596 228.703 40.9367ZM86.6911 53.1755C90.4893 56.9737 93.6545 60.5609 93.6545 61.405C93.6545 62.8821 72.7642 68.5794 71.7091 67.3134C63.9016 56.7627 59.8924 51.0653 59.8924 50.0102C59.8924 49.3772 63.4796 48.3221 67.9109 47.9001C72.1312 47.4781 76.5624 47.0561 77.8285 46.845C78.8836 46.634 82.8928 49.3772 86.6911 53.1755ZM190.51 49.7992C190.932 50.0102 189.033 53.3865 186.501 57.1847C181.858 63.5151 181.014 63.7261 171.097 62.6711C165.399 61.827 160.124 60.7719 159.491 60.1389C158.858 59.5059 160.968 56.3407 164.344 52.7534C169.619 47.2671 171.097 46.634 179.959 47.9001C185.234 48.5332 190.088 49.3772 190.51 49.7992ZM134.591 57.1847C138.811 59.7169 142.188 62.038 142.188 62.46C142.188 62.8821 138.389 65.8363 133.747 68.7905L125.518 74.2768L117.71 69.4235L109.903 64.7812L117.077 58.8728C125.729 51.6984 125.307 51.6984 134.591 57.1847ZM164.977 69.0015C174.895 70.6896 175.106 73.0107 165.399 79.9742C156.959 86.0936 156.537 86.0936 147.041 83.3504C135.013 79.7632 134.169 78.7081 139.233 75.1209C141.344 73.4328 145.142 70.6896 147.463 68.7905C149.784 67.1023 153.16 66.0473 154.848 66.6803C156.537 67.3134 161.179 68.3684 164.977 69.0015ZM107.37 72.1667C111.38 74.9098 114.756 77.653 114.756 78.4971C114.756 80.1852 100.829 84.4055 95.1316 84.4055C90.9114 84.4055 80.9937 78.4971 80.9937 75.9649C80.9937 74.9098 85.003 72.7997 90.0673 71.1116C94.9206 69.4235 99.1409 67.9464 99.5629 67.7354C99.7739 67.7354 103.361 69.6345 107.37 72.1667ZM209.501 73.2217C199.794 85.0385 193.886 88.4147 182.913 88.6257C176.794 88.6257 171.73 87.7817 171.73 86.9376C171.73 86.0936 174.895 82.2953 178.693 78.7081C183.757 73.6438 187.767 71.7446 194.941 71.1116C200.216 70.6896 206.125 70.2676 208.446 70.0565C211.822 69.6345 212.033 70.0565 209.501 73.2217ZM74.2413 80.8182C81.2047 87.1486 80.1497 88.6257 68.1219 88.6257C59.8924 88.6257 55.8831 87.3596 50.1857 83.1394C46.1765 79.9742 43.0113 76.809 43.0113 75.9649C43.0113 74.9098 48.9197 74.6988 56.3051 75.3319C65.3787 76.1759 70.8651 77.864 74.2413 80.8182ZM140.289 89.2588L147.463 92.213L136.912 96.8553C127.628 101.076 125.518 101.287 118.343 98.9654C113.912 97.4883 108.848 95.1672 106.948 93.9011C103.994 91.5799 104.838 90.9469 112.857 87.9927C122.774 84.4055 129.105 84.6165 140.289 89.2588ZM101.673 99.5984C106.526 102.342 110.536 105.296 110.536 106.351C110.536 109.094 87.5351 106.562 78.2505 102.553C73.8193 100.865 70.6541 98.3324 71.4981 97.0663C73.8193 93.057 92.1774 94.7451 101.673 99.5984ZM177.005 96.8553C178.482 99.3874 156.748 107.617 148.729 107.617C139.233 107.617 139.233 104.874 148.94 99.8094C158.225 95.1672 174.684 93.268 177.005 96.8553ZM127.417 111.837C127.417 112.892 126.573 113.947 125.307 113.947C124.252 113.947 123.196 112.892 123.196 111.837C123.196 110.571 124.252 109.727 125.307 109.727C126.573 109.727 127.417 110.571 127.417 111.837Z" fill="white"/>
</g>
</svg>
